<svg xmlns="http://www.w3.org/2000/svg" width="24" height="24" viewBox="0 0 24 24">
  <g id="Group_934" data-name="Group 934" transform="translate(-1227 -412)">
    <rect id="Rectangle_5" data-name="Rectangle 5" width="24" height="24" transform="translate(1227 412)" fill="none"/>
    <g id="Group_935" data-name="Group 935" transform="translate(1227 412)">
      <path id="Path_53" data-name="Path 53" d="M18.14,21.62A11.152,11.152,0,0,1,15,22H9a11.152,11.152,0,0,1-3.14-.38c.22-2.6,2.89-4.65,6.14-4.65S17.92,19.02,18.14,21.62Z" fill="none" stroke="#76a1e4" stroke-linecap="round" stroke-linejoin="round" stroke-width="1.5"/>
      <path id="Path_54" data-name="Path 54" d="M15,2H9C4,2,2,4,2,9v6c0,3.78,1.14,5.85,3.86,6.62.22-2.6,2.89-4.65,6.14-4.65s5.92,2.05,6.14,4.65C20.86,20.85,22,18.78,22,15V9C22,4,20,2,15,2ZM12,14.17a3.585,3.585,0,1,1,3.58-3.59A3.585,3.585,0,0,1,12,14.17Z" fill="none" stroke="#76a1e4" stroke-linecap="round" stroke-linejoin="round" stroke-width="1.5"/>
      <path id="Path_55" data-name="Path 55" d="M15.58,10.58A3.58,3.58,0,1,1,12,7,3.585,3.585,0,0,1,15.58,10.58Z" fill="none" stroke="#76a1e4" stroke-linecap="round" stroke-linejoin="round" stroke-width="1.5"/>
    </g>
  </g>
</svg>
