<svg xmlns="http://www.w3.org/2000/svg" width="24" height="24" viewBox="0 0 24 24">
  <g id="Group_926" data-name="Group 926" transform="translate(-1230 -412)">
    <rect id="Rectangle_5" data-name="Rectangle 5" width="24" height="24" transform="translate(1230 412)" fill="none"/>
    <g id="Group_927" data-name="Group 927" transform="translate(1230.026 412.06)">
      <path id="Path_41" data-name="Path 41" d="M12.02,2.91a6,6,0,0,0-6,6V11.8a4.778,4.778,0,0,1-.57,2.06L4.3,15.77A1.919,1.919,0,0,0,5.38,18.7a20.921,20.921,0,0,0,13.27,0,2,2,0,0,0,1.08-2.93l-1.15-1.91a4.91,4.91,0,0,1-.56-2.06V8.91A6.018,6.018,0,0,0,12.02,2.91Z" fill="none" stroke="#292d32" stroke-linecap="round" stroke-width="1.5"/>
      <path id="Path_42" data-name="Path 42" d="M13.87,3.2a6.054,6.054,0,0,0-.96-.2,6.754,6.754,0,0,0-2.74.2,1.988,1.988,0,0,1,3.7,0Z" fill="none" stroke="#292d32" stroke-linecap="round" stroke-linejoin="round" stroke-width="1.5"/>
      <path id="Path_43" data-name="Path 43" d="M15.02,19.06a3,3,0,0,1-6,0" fill="none" stroke="#292d32" stroke-width="1.5"/>
    </g>
  </g>
</svg>
