<svg xmlns="http://www.w3.org/2000/svg" width="24" height="24" viewBox="0 0 24 24">
  <g id="Group_930" data-name="Group 930" transform="translate(-1227 -412)">
    <rect id="Rectangle_5" data-name="Rectangle 5" width="24" height="24" transform="translate(1227 412)" fill="none"/>
    <g id="Group_931" data-name="Group 931" transform="translate(1226.61 412)">
      <path id="Path_46" data-name="Path 46" d="M3.17,7.44,12,12.55l8.77-5.08" fill="none" stroke="#76a1e4" stroke-linecap="round" stroke-linejoin="round" stroke-width="1.5"/>
      <path id="Path_47" data-name="Path 47" d="M12,21.61V12.54" fill="none" stroke="#76a1e4" stroke-linecap="round" stroke-linejoin="round" stroke-width="1.5"/>
      <path id="Path_48" data-name="Path 48" d="M9.93,2.48,4.59,5.45a4.719,4.719,0,0,0-2.2,3.73v5.65a4.719,4.719,0,0,0,2.2,3.73l5.34,2.97a4.792,4.792,0,0,0,4.15,0l5.34-2.97a4.719,4.719,0,0,0,2.2-3.73V9.18a4.719,4.719,0,0,0-2.2-3.73L14.08,2.48A4.725,4.725,0,0,0,9.93,2.48Z" fill="none" stroke="#76a1e4" stroke-linecap="round" stroke-linejoin="round" stroke-width="1.5"/>
      <path id="Path_49" data-name="Path 49" d="M17,13.24V9.58L7.51,4.1" fill="none" stroke="#76a1e4" stroke-linecap="round" stroke-linejoin="round" stroke-width="1.5"/>
    </g>
  </g>
</svg>
