<svg xmlns="http://www.w3.org/2000/svg" width="24" height="24" viewBox="0 0 24 24">
  <g id="Group_932" data-name="Group 932" transform="translate(-1227 -412)">
    <rect id="Rectangle_5" data-name="Rectangle 5" width="24" height="24" transform="translate(1227 412)" fill="none"/>
    <g id="Group_933" data-name="Group 933" transform="translate(1226.52 412)">
      <path id="Path_50" data-name="Path 50" d="M8.4,6.5h7.2c3.4,0,3.74,1.59,3.97,3.53l.9,7.5C20.76,19.99,20,22,16.5,22H7.51C4,22,3.24,19.99,3.54,17.53l.9-7.5C4.66,8.09,5,6.5,8.4,6.5Z" fill="none" stroke="#467ac8" stroke-linecap="round" stroke-linejoin="round" stroke-width="1.5"/>
      <path id="Path_51" data-name="Path 51" d="M8,8V4.5A2.362,2.362,0,0,1,10.5,2h3A2.362,2.362,0,0,1,16,4.5V8" fill="none" stroke="#467ac8" stroke-linecap="round" stroke-linejoin="round" stroke-width="1.5"/>
      <path id="Path_52" data-name="Path 52" d="M20.41,17.03H8" fill="none" stroke="#467ac8" stroke-linecap="round" stroke-linejoin="round" stroke-width="1.5"/>
    </g>
  </g>
</svg>
